<?xml version="1.0" standalone="no"?>
<!DOCTYPE svg PUBLIC "-//W3C//DTD SVG 20010904//EN"
 "http://www.w3.org/TR/2001/REC-SVG-20010904/DTD/svg10.dtd">
<svg version="1.0" xmlns="http://www.w3.org/2000/svg"
 width="1032.000000pt" height="1032.000000pt" viewBox="0 0 1032.000000 1032.000000"
 preserveAspectRatio="xMidYMid meet">
<metadata>
Created by potrace 1.14, written by Peter Selinger 2001-2017
</metadata>
<g transform="translate(0.000000,1032.000000) scale(0.100000,-0.100000)"
fill="#000000" stroke="none">
<path d="M3828 10309 c-388 -34 -780 -144 -1093 -306 -16 -8 -57 -29 -90 -46
-33 -17 -79 -43 -102 -59 -23 -15 -44 -28 -48 -28 -21 0 -283 -192 -405 -298
-240 -209 -470 -483 -617 -737 -22 -38 -56 -97 -75 -130 -122 -214 -256 -593
-298 -845 -7 -41 -22 -122 -33 -180 -21 -105 -21 -118 -24 -2935 -4 -3053 -6
-2900 46 -3120 11 -44 22 -98 26 -120 4 -22 22 -77 41 -123 19 -45 34 -87 34
-92 0 -5 25 -60 55 -122 146 -298 345 -545 596 -735 134 -102 254 -176 384
-237 106 -50 318 -126 380 -136 28 -4 104 -19 170 -32 l120 -23 1685 0 1685 0
155 23 c85 13 184 28 220 33 36 5 94 17 130 27 36 11 94 27 130 36 384 101
825 322 1120 562 40 32 85 68 100 79 118 87 409 392 514 540 161 226 213 309
306 494 181 356 289 720 331 1111 16 147 16 509 0 670 -27 274 -118 635 -222
880 -104 245 -223 464 -335 615 -24 33 -56 78 -71 100 -104 152 -400 460 -573
594 -164 128 -168 131 -244 181 -246 162 -552 310 -775 376 -35 10 -66 25 -69
32 -2 7 0 30 6 50 57 201 73 303 98 622 30 384 -6 759 -102 1069 -8 25 -14 53
-14 63 0 20 -67 196 -132 348 -63 145 -117 245 -243 444 -26 42 -85 122 -178
244 -51 67 -295 318 -374 384 -287 239 -597 426 -888 533 -49 19 -108 40 -130
48 -152 56 -456 119 -710 147 -103 11 -358 11 -487 -1z m550 -1454 c179 -39
276 -71 412 -135 162 -76 350 -221 486 -372 140 -157 283 -416 328 -593 61
-243 60 -240 60 -460 0 -179 -3 -222 -21 -295 -12 -47 -24 -105 -28 -130 -10
-67 -101 -302 -156 -403 -104 -191 -272 -392 -419 -500 -41 -31 -86 -64 -100
-75 -117 -89 -410 -223 -592 -272 -43 -11 -111 -29 -150 -39 -69 -18 -176 -39
-403 -77 -55 -9 -134 -23 -175 -31 -41 -7 -124 -20 -185 -29 -60 -8 -135 -21
-165 -28 -73 -19 -189 -42 -273 -56 -37 -6 -80 -15 -95 -21 -15 -6 -72 -22
-127 -35 -90 -22 -163 -47 -221 -76 -12 -5 -29 -8 -38 -6 -15 3 -17 84 -16
1100 l0 1097 31 158 c17 87 42 187 56 223 14 36 37 94 50 129 35 88 109 210
209 347 58 78 246 262 309 302 22 14 49 33 60 43 38 32 169 101 280 147 85 36
150 55 275 81 52 11 104 22 115 24 11 3 100 5 198 6 155 1 193 -2 295 -24z
m2059 -3759 c217 -54 487 -174 629 -280 21 -17 54 -40 71 -53 58 -42 186 -166
266 -256 160 -181 287 -407 359 -637 55 -174 65 -230 79 -415 35 -499 -81
-906 -371 -1290 -97 -129 -217 -248 -351 -348 -64 -48 -119 -87 -122 -87 -4 0
-22 -11 -42 -24 -49 -34 -228 -120 -300 -146 -126 -44 -185 -60 -330 -87
l-150 -28 -1600 1 -1600 1 -84 28 c-47 15 -96 34 -110 43 -126 81 -202 175
-251 310 l-32 87 0 635 0 635 27 105 c31 116 45 148 110 249 46 72 140 165
210 208 22 14 56 36 76 49 137 93 491 192 764 214 72 6 168 20 215 30 47 10
130 26 185 35 55 10 136 26 180 37 44 11 125 30 180 43 99 22 281 78 384 117
29 12 86 31 125 44 39 12 114 41 166 64 115 50 399 189 420 205 8 7 40 26 70
42 147 80 396 264 556 410 39 36 78 69 85 74 24 15 84 10 186 -15z"/>
</g>
</svg>
